<?xml version="1.0" standalone="no"?>
<!DOCTYPE svg PUBLIC "-//W3C//DTD SVG 20010904//EN"
 "http://www.w3.org/TR/2001/REC-SVG-20010904/DTD/svg10.dtd">
<svg version="1.0" xmlns="http://www.w3.org/2000/svg"
 width="240.000000pt" height="240.000000pt" viewBox="0 0 240.000000 240.000000"
 preserveAspectRatio="xMidYMid meet">
<metadata>
Created by potrace 1.11, written by Peter Selinger 2001-2013
</metadata>
<g transform="translate(0.000000,240.000000) scale(0.100000,-0.100000)"
fill="#000000" stroke="none">
<path d="M870 2221 c-100 -29 -145 -47 -213 -87 -283 -165 -449 -463 -435
-780 4 -91 8 -106 30 -136 90 -116 200 -197 310 -228 34 -10 37 -6 28 34 -5
24 -3 38 10 54 27 33 13 69 -51 136 -33 33 -59 68 -59 77 0 9 -11 32 -24 52
-37 54 -48 77 -53 110 -3 17 -12 36 -20 42 -13 10 -13 18 1 76 33 129 135 293
194 313 15 5 37 17 49 28 12 11 25 18 30 15 18 -11 50 13 68 52 20 41 50 59
148 91 55 17 54 8 -3 -25 -45 -26 -70 -58 -57 -71 2 -3 21 5 41 17 21 12 60
24 89 26 51 3 120 36 147 68 10 12 24 14 64 10 47 -5 186 -42 186 -49 0 -6
-69 -76 -75 -76 -3 0 -4 9 0 19 5 17 -1 21 -40 26 -45 7 -46 6 -96 -43 -48
-48 -56 -72 -23 -72 8 0 14 -4 14 -9 0 -18 -12 -41 -22 -41 -6 0 -30 -12 -53
-27 -33 -22 -42 -34 -41 -53 1 -22 -3 -25 -34 -26 -30 0 -36 -4 -44 -33 -8
-28 -7 -36 8 -47 24 -17 57 -4 101 41 43 42 80 46 119 10 31 -28 32 -34 9 -51
-17 -13 -17 -13 0 -14 9 0 23 12 29 26 11 23 10 29 -11 45 -13 11 -21 22 -18
25 11 11 66 -40 78 -72 10 -27 19 -32 68 -42 46 -10 431 -148 458 -165 15 -9
148 67 147 83 -13 128 -105 307 -219 425 -114 118 -205 176 -360 230 -73 26
-95 28 -245 31 -137 3 -176 0 -230 -15z m342 -273 c-4 -28 -3 -30 18 -25 20 5
20 4 7 -11 -7 -9 -17 -25 -20 -34 -9 -24 -77 -26 -77 -2 0 14 3 14 15 4 19
-15 24 -11 31 24 5 29 22 76 27 76 2 0 1 -14 -1 -32z"/>
<path d="M1016 1898 c-3 -7 -7 -28 -10 -45 -6 -35 2 -40 34 -23 17 9 17 13 5
37 -8 15 -12 30 -9 35 3 4 0 8 -6 8 -6 0 -12 -6 -14 -12z"/>
<path d="M976 1864 c-13 -13 -15 -19 -6 -22 15 -5 33 13 28 28 -3 9 -9 7 -22
-6z"/>
<path d="M1025 1653 c-73 -10 -105 -24 -119 -52 -8 -15 -28 -33 -43 -40 -52
-21 -73 -68 -76 -162 -2 -69 2 -90 18 -118 35 -59 128 -91 191 -66 27 11 35
11 59 -5 15 -10 34 -16 41 -13 8 3 14 0 14 -6 0 -6 12 -16 27 -22 21 -8 36 -6
65 7 21 9 38 20 38 23 0 4 -24 27 -52 51 -157 133 -178 173 -136 258 16 34 35
54 66 71 31 17 41 26 33 34 -6 6 -11 19 -11 29 0 15 -8 18 -42 17 -24 -1 -56
-4 -73 -6z"/>
<path d="M1228 1479 c-20 -10 -39 -22 -42 -27 -3 -5 67 -71 155 -147 l161
-139 -157 -78 -158 -78 -84 21 c-71 17 -90 19 -114 9 -16 -7 -32 -17 -35 -22
-4 -5 33 -46 80 -91 l86 -82 6 -60 c3 -33 7 -69 9 -80 2 -11 4 -37 4 -59 1
-37 2 -38 29 -31 15 3 34 13 44 22 15 13 15 11 6 -29 -10 -41 -44 -174 -54
-210 -4 -14 1 -18 25 -18 24 0 32 5 36 23 3 12 12 54 21 92 22 100 60 148 147
187 38 16 47 25 45 42 -6 42 -42 30 -101 -33 -52 -56 -55 -58 -46 -28 14 50
11 67 -11 67 -24 0 -24 3 -5 41 12 23 48 45 170 106 85 42 156 75 158 72 3 -2
7 -58 11 -125 l7 -121 -48 -39 c-26 -21 -44 -31 -41 -22 4 9 10 33 14 52 6 34
4 36 -19 36 -31 0 -121 -61 -126 -85 -3 -15 2 -14 29 8 29 24 50 34 50 23 0
-7 -60 -258 -66 -278 -4 -15 1 -18 25 -18 33 0 34 3 61 124 14 64 33 98 71
130 60 51 70 14 37 -130 -22 -93 -20 -120 8 -131 30 -11 146 69 127 88 -6 6
-20 -2 -38 -21 -36 -38 -45 -38 -45 1 0 57 21 107 50 119 24 10 35 35 115 273
48 144 93 267 99 274 6 7 67 40 136 73 162 80 220 134 220 208 0 37 -18 60
-56 71 -65 19 -114 6 -259 -64 -77 -37 -147 -68 -156 -67 -9 0 -130 39 -269
86 -139 47 -258 86 -264 85 -6 -1 -28 -10 -48 -20z"/>
<path d="M226 1018 c9 -32 43 -98 65 -130 l19 -26 -32 -7 c-86 -18 -154 -89
-146 -152 4 -32 32 -53 49 -36 9 9 9 19 -1 43 -10 25 -10 35 0 55 26 49 170
92 156 48 -137 -457 -160 -513 -207 -513 -10 0 -34 14 -54 31 -37 33 -65 33
-65 0 0 -11 12 -29 27 -41 22 -18 37 -21 75 -17 111 10 161 82 228 327 23 85
46 159 50 164 5 4 29 -8 55 -27 25 -20 52 -38 58 -40 8 -3 5 -12 -9 -28 -83
-92 -96 -250 -25 -289 86 -46 230 66 247 191 l6 47 49 -2 c32 -1 49 -5 49 -13
0 -7 -9 -47 -21 -88 -25 -91 -23 -129 8 -133 25 -4 87 26 129 61 l29 25 -3
-37 c-7 -74 49 -77 119 -5 39 40 28 46 -13 7 -22 -21 -31 -24 -40 -15 -10 10
-6 40 21 144 18 72 35 138 38 146 4 10 -2 13 -28 10 -32 -3 -33 -4 -54 -88
-26 -102 -34 -118 -80 -159 -68 -60 -86 -38 -55 69 l22 77 53 12 54 12 -5 62
c-6 65 -22 97 -65 129 -22 17 -31 18 -75 7 -69 -16 -218 -13 -289 6 -109 29
-222 90 -304 164 -41 37 -44 38 -35 9z m375 -365 c48 -17 49 -18 49 -61 0 -66
-20 -129 -50 -162 -33 -35 -60 -38 -86 -9 -26 29 -27 158 0 212 21 43 22 43
87 20z"/>
<path d="M1915 711 c-71 -44 -125 -140 -133 -236 -4 -54 -2 -65 17 -84 26 -26
61 -27 111 -1 49 25 112 79 105 91 -3 4 -27 -5 -52 -21 -73 -47 -113 -37 -113
27 0 29 5 34 48 53 64 28 120 68 127 91 4 10 9 18 13 17 4 -1 17 3 30 10 47
26 78 -8 106 -114 20 -78 21 -186 2 -223 -8 -15 -32 -43 -52 -60 -35 -31 -39
-32 -93 -26 -47 5 -60 3 -71 -10 -23 -28 0 -50 52 -49 65 0 129 42 189 122
113 154 192 383 144 422 -30 25 -40 6 -41 -81 0 -63 -6 -99 -23 -142 -13 -32
-25 -56 -28 -54 -2 3 -8 36 -14 73 -10 74 -71 214 -93 214 -6 0 -33 -13 -59
-30 -31 -19 -47 -25 -47 -16 0 22 -35 46 -66 46 -16 0 -42 -8 -59 -19z m51
-37 c9 -35 -12 -70 -63 -106 -32 -21 -43 -25 -43 -14 0 26 31 110 48 129 23
25 50 21 58 -9z"/>
</g>
</svg>
